<svg width="50" height="50" viewBox="0 0 50 50" fill="none" xmlns="http://www.w3.org/2000/svg">
    <path d="M37.946 0H12.054C5.39678 0 0 5.39678 0 12.054V37.946C0 44.6032 5.39678 50 12.054 50H37.946C44.6032 50 50 44.6032 50 37.946V12.054C50 5.39678 44.6032 0 37.946 0Z" fill="#ECECEC"/>
    <path d="M11.9476 20.016C13.4832 20.016 14.251 20.6225 14.251 21.8355C14.251 22.3889 14.0899 22.9156 13.7678 23.4157L13.2684 24.1659C13.2684 24.251 13.408 24.3893 13.6872 24.5809C13.9664 24.7618 14.2188 25.0278 14.4443 25.3789C14.6805 25.7194 14.7986 26.1132 14.7986 26.5601C14.7986 27.007 14.7342 27.4007 14.6053 27.7412C14.4765 28.0817 14.2563 28.3956 13.9449 28.6829C13.6228 28.9596 13.247 29.1724 12.8174 29.3214C12.3879 29.4703 11.9637 29.5448 11.5449 29.5448H11.3356C11.0349 29.5448 10.745 29.5076 10.4658 29.4331C10.1866 29.3692 9.93959 29.2788 9.72483 29.1617C9.51006 29.0341 9.33288 28.8957 9.19329 28.7468C9.06443 28.5978 9 28.4435 9 28.2839C9 27.9647 9.15033 27.805 9.451 27.805C9.52617 27.805 9.63355 27.8316 9.77315 27.8848C9.92348 27.9274 10.1221 27.9913 10.3691 28.0764C10.8094 28.2573 11.2658 28.3477 11.7382 28.3477C12.1892 28.3477 12.5543 28.1881 12.8335 27.8689C13.1127 27.5497 13.2523 27.1666 13.2523 26.7197C13.2523 26.4962 13.2094 26.2994 13.1235 26.1291C13.0483 25.9589 12.9463 25.8099 12.8174 25.6822C12.6993 25.5545 12.5704 25.4481 12.4308 25.363C12.302 25.2778 12.1839 25.2193 12.0765 25.1874L11.4322 25.0118C11.2282 24.9693 11.0778 24.9107 10.9812 24.8363C10.8846 24.7618 10.8362 24.6394 10.8362 24.4691C10.8362 24.3415 11.0456 24.1659 11.4644 23.9424C12.3342 23.4742 12.7691 22.8783 12.7691 22.1548C12.7691 21.8568 12.6671 21.6227 12.4631 21.4525C12.259 21.2716 11.9852 21.1811 11.6416 21.1811C11.3194 21.1811 10.9382 21.2769 10.498 21.4684C10.0792 21.6706 9.78926 21.7717 9.62818 21.7717C9.41342 21.7717 9.30604 21.6546 9.30604 21.4205C9.30604 21.1545 9.40805 20.9364 9.61208 20.7661C9.8161 20.5852 10.0577 20.4416 10.3369 20.3352C10.6161 20.2181 10.906 20.1383 11.2067 20.0958C11.5074 20.0426 11.7543 20.016 11.9476 20.016Z" fill="#42BF64"/>
    <path d="M20.4486 20C21.3614 20 21.8177 20.2235 21.8177 20.6704C21.8177 20.9896 21.5332 21.1705 20.9641 21.2131C20.7063 21.2343 20.4594 21.2663 20.2231 21.3088C19.9869 21.3514 19.7614 21.4205 19.5466 21.5163C19.3426 21.6014 19.1493 21.7238 18.9668 21.8834C18.7842 22.0324 18.6178 22.2293 18.4674 22.474C18.2956 22.74 18.2097 23.0007 18.2097 23.2561C18.2097 23.554 18.3708 23.703 18.6929 23.703L20.0137 23.6072C20.4003 23.6072 20.7547 23.6711 21.0768 23.7988C21.4097 23.9265 21.6942 24.1074 21.9305 24.3415C22.1667 24.5756 22.3493 24.8575 22.4781 25.1874C22.607 25.5066 22.6714 25.8684 22.6714 26.2728V26.4643C22.6714 26.858 22.5909 27.2358 22.4298 27.5975C22.2795 27.9487 22.0701 28.2573 21.8016 28.5233C21.5439 28.7787 21.2379 28.9862 20.8835 29.1458C20.5292 29.2948 20.1533 29.3692 19.756 29.3692H19.3855C19.0097 29.3692 18.6124 29.2788 18.1936 29.0979C17.8178 28.9276 17.5117 28.7095 17.2755 28.4435C17.05 28.1668 16.8728 27.8689 16.7439 27.5497C16.6151 27.2198 16.5238 26.8846 16.4701 26.5441C16.4272 26.193 16.4057 25.8631 16.4057 25.5545V25.1874C16.4057 24.8043 16.4379 24.384 16.5023 23.9265C16.5668 23.4689 16.6903 23.0167 16.8728 22.5698C17.0554 22.1228 17.3131 21.7025 17.646 21.3088C17.9788 20.9151 18.4191 20.5959 18.9668 20.3511C19.4714 20.117 19.9654 20 20.4486 20ZM19.4822 28.3956H19.6594C19.8741 28.3956 20.0782 28.3477 20.2714 28.252C20.4647 28.1562 20.6365 28.0285 20.7869 27.8689C20.9372 27.7093 21.0553 27.5177 21.1412 27.2943C21.2379 27.0708 21.2862 26.8314 21.2862 26.576V26.4483L21.3023 26.2408V26.177L21.2862 26.1132C21.2862 25.5385 21.1412 25.097 20.8513 24.7884C20.5721 24.4691 20.1909 24.3095 19.7077 24.3095H19.6594C19.1654 24.3095 18.7574 24.4585 18.4352 24.7564C18.1131 25.0437 17.952 25.4109 17.952 25.8578V26.3206C17.952 26.6399 17.9949 26.9272 18.0809 27.1826C18.1668 27.4379 18.2795 27.6561 18.4191 27.837C18.5694 28.0179 18.7359 28.1562 18.9184 28.252C19.101 28.3477 19.2889 28.3956 19.4822 28.3956Z" fill="#42BF64"/>
    <path d="M28.6529 26.5601C28.6529 25.2619 27.8046 24.6128 26.1079 24.6128H25.7214C25.5281 24.6128 25.367 24.6022 25.2381 24.5809C25.1093 24.5489 25.0019 24.4904 24.916 24.4053C24.8408 24.3095 24.7818 24.1818 24.7388 24.0222C24.7066 23.852 24.6905 23.6232 24.6905 23.3359C24.6905 23.0486 24.7066 22.756 24.7388 22.458C24.771 22.1494 24.8086 21.8675 24.8516 21.6121C24.9053 21.3461 24.9589 21.112 25.0126 20.9098C25.0663 20.7076 25.12 20.5693 25.1737 20.4948C25.2811 20.3352 25.4529 20.2341 25.6891 20.1915C25.9576 20.1383 26.3603 20.1117 26.8972 20.1117C27.1764 20.1117 27.418 20.1117 27.622 20.1117C27.8368 20.1011 28.0193 20.0958 28.1697 20.0958L29.2489 20.016C29.6891 20.016 29.9092 20.1437 29.9092 20.399C29.9092 20.5906 29.877 20.7449 29.8126 20.8619C29.7482 20.9683 29.6354 21.0534 29.4744 21.1173C29.324 21.1705 29.12 21.2077 28.8623 21.229C28.6046 21.2503 28.277 21.2663 27.8797 21.2769C27.1066 21.2875 26.6395 21.3407 26.4784 21.4365C26.3281 21.5216 26.1938 21.6972 26.0757 21.9632C25.9576 22.2186 25.8985 22.5059 25.8985 22.8251C25.8985 22.9847 25.9039 23.1124 25.9146 23.2082C25.9254 23.2933 25.9576 23.3572 26.0113 23.3997C26.065 23.4317 26.1563 23.4529 26.2851 23.4636C26.4247 23.4742 26.6126 23.4795 26.8489 23.4795C27.3213 23.4795 27.7616 23.5434 28.1697 23.6711C28.5777 23.7881 28.9267 23.969 29.2166 24.2138C29.5173 24.4585 29.7482 24.7671 29.9092 25.1395C30.0811 25.5013 30.167 25.9216 30.167 26.4005C30.167 26.8686 30.0811 27.2943 29.9092 27.6774C29.7482 28.0604 29.5227 28.3903 29.2327 28.6669C28.9428 28.9436 28.5992 29.1564 28.2019 29.3054C27.8046 29.4544 27.375 29.5289 26.9133 29.5289H26.6878C26.3764 29.5289 26.0757 29.4916 25.7858 29.4171C25.5066 29.3426 25.2596 29.2469 25.0449 29.1298C24.8301 29.0128 24.6583 28.8744 24.5294 28.7148C24.4006 28.5552 24.3361 28.3956 24.3361 28.236C24.3361 27.9061 24.4865 27.7412 24.7871 27.7412C24.8945 27.7412 25.1791 27.8423 25.6408 28.0445C26.0811 28.2466 26.5267 28.3477 26.9777 28.3477C27.4287 28.3477 27.8207 28.1881 28.1536 27.8689C28.4864 27.539 28.6529 27.1027 28.6529 26.5601Z" fill="#42BF64"/>
    <path d="M33.3602 22.5698V22.4101C33.3495 22.3569 33.3441 22.2878 33.3441 22.2027C33.3441 22.1175 33.3441 22.0111 33.3441 21.8834C33.3441 21.6068 33.285 21.3354 33.1669 21.0694C33.0488 20.7715 32.9897 20.6118 32.9897 20.5906V20.4788C32.9897 20.2979 33.1347 20.1862 33.4246 20.1437C34.0045 20.0479 34.7615 20 35.6958 20H36.1951C37.6555 20 38.7776 20.4097 39.5615 21.229C40.3561 22.0377 40.7535 23.1603 40.7535 24.5968L40.7373 24.7724C40.7373 25.1555 40.6998 25.5758 40.6246 26.0333C40.5602 26.4803 40.4206 26.9165 40.2058 27.3422C39.991 27.7678 39.685 28.1615 39.2877 28.5233C38.9011 28.8851 38.3911 29.1724 37.7575 29.3852C37.2421 29.5555 36.5602 29.6406 35.7119 29.6406H35.3897C34.9709 29.6406 34.6005 29.6353 34.2783 29.6246C33.9562 29.6033 33.677 29.5714 33.4408 29.5289C33.1616 29.4756 33.022 29.3639 33.022 29.1937C33.022 29.0766 33.0757 28.9064 33.183 28.6829C33.2904 28.4275 33.3495 28.1668 33.3602 27.9008C33.3817 27.7625 33.3924 27.4592 33.3924 26.991C33.3924 26.5228 33.3924 25.8897 33.3924 25.0916V23.8147L33.3602 22.5698ZM39.0461 25.0118V24.533C39.0461 24.0861 38.9924 23.6498 38.885 23.2242C38.7776 22.7879 38.6058 22.4048 38.3696 22.075C38.1333 21.7345 37.8273 21.4631 37.4515 21.2609C37.0864 21.0481 36.6461 20.9417 36.1307 20.9417H35.8246C35.2555 20.9417 34.9387 21.0588 34.8743 21.2929C34.8421 21.4205 34.826 22.0803 34.826 23.2721V25.6662L34.8099 26.0972V27.1666L34.826 27.2783V27.5816L34.8421 28.0125C34.8421 28.236 34.9119 28.3956 35.0515 28.4914C35.2018 28.5871 35.5025 28.635 35.9535 28.635L36.0501 28.6191C36.587 28.6191 37.0434 28.5233 37.4192 28.3318C37.8058 28.1296 38.1172 27.8636 38.3535 27.5337C38.6004 27.1932 38.7776 26.8048 38.885 26.3685C38.9924 25.9323 39.0461 25.48 39.0461 25.0118Z" fill="#23262B"/>
</svg>