<svg width="50" height="50" viewBox="0 0 50 50" fill="none" xmlns="http://www.w3.org/2000/svg">
    <path d="M37.946 0H12.054C5.39678 0 0 5.39678 0 12.054V37.946C0 44.6032 5.39678 50 12.054 50H37.946C44.6032 50 50 44.6032 50 37.946V12.054C50 5.39678 44.6032 0 37.946 0Z" fill="#ECECEC"/>
    <path d="M14.2034 31.7082C14.8069 31.6111 15.3687 31.5348 15.7918 31.4723C15.7918 31.4723 16.6173 31.3267 17.1028 31.292C18.1641 31.1949 19.3502 31.2642 20.5294 31.4585C22.0277 31.7082 23.5051 32.159 24.719 32.7348L24.9965 32.8666L25.2739 32.7348C26.4947 32.159 27.9722 31.7082 29.4635 31.4585C30.8508 31.2296 32.245 31.1741 33.445 31.3614L34.2011 31.4793V16.996L33.6462 16.9059C32.3005 16.6908 30.7606 16.7463 29.2485 17.003C27.7502 17.2527 26.2589 17.6966 24.9895 18.2585C23.7202 17.6966 22.2358 17.2527 20.7306 17.003C19.2115 16.7533 17.6785 16.6908 16.3329 16.9059L15.778 16.996V30.1475C15.3826 30.203 14.8138 30.2862 14.1895 30.3833V15.6504L16.0832 15.3521C16.8254 15.2342 17.6092 15.1856 18.4138 15.1995C19.26 15.2134 20.1271 15.3035 20.9941 15.4423C21.6323 15.5463 22.2774 15.692 22.9086 15.8585C23.5467 16.0319 24.171 16.233 24.7537 16.455L24.9826 16.5452L25.2115 16.455C25.8011 16.233 26.4184 16.0319 27.0566 15.8585C27.6878 15.685 28.3329 15.5463 28.971 15.4423C29.8311 15.2966 30.7051 15.2134 31.5514 15.1995C32.356 15.1856 33.1398 15.2342 33.882 15.3521L35.7756 15.6504V33.3382L33.1814 32.929C32.682 32.8527 32.134 32.8249 31.5583 32.8388C30.9618 32.8596 30.3375 32.922 29.7132 33.0261C29.0335 33.1371 28.3676 33.2966 27.7363 33.4839C27.0982 33.6781 26.4878 33.907 25.9329 34.1706L24.9756 34.6215L24.0184 34.1706C23.4635 33.907 22.8531 33.6781 22.215 33.4839C21.5907 33.2966 20.9178 33.1371 20.2381 33.0261C19.6138 32.922 18.9895 32.8596 18.393 32.8388C18.2126 32.8388 18.0323 32.8388 17.8589 32.8388V34.1498C18.0254 34.1498 18.1849 34.1429 18.3583 34.1498C18.8855 34.1637 19.4473 34.2261 20.023 34.3232C20.6334 34.4272 21.2439 34.5729 21.8334 34.7463C22.423 34.9267 22.971 35.1348 23.4566 35.3637L24.6913 35.9463L24.9687 36.0781L25.2462 35.9463L26.4808 35.3637C26.9664 35.1348 27.5144 34.9267 28.104 34.7463C28.6936 34.566 29.304 34.4203 29.9144 34.3232C30.4901 34.2261 31.0519 34.1706 31.5791 34.1498C32.0716 34.1359 32.5433 34.1567 32.9595 34.2261L36.3098 34.7602L37.0658 34.8781V14.5336L36.5109 14.4434L34.0624 14.055C33.2439 13.9232 32.3837 13.8746 31.5098 13.8885C30.5872 13.9024 29.6508 13.9995 28.7352 14.1521C28.0485 14.27 27.3618 14.4157 26.6959 14.596C26.1063 14.7556 25.5167 14.9428 24.9548 15.144C24.393 14.9359 23.8103 14.7556 23.2138 14.596C22.5479 14.4157 21.8612 14.27 21.1745 14.1521C20.2589 13.9995 19.3225 13.9093 18.3999 13.8885C17.5259 13.8746 16.6589 13.9232 15.8404 14.055L13.3918 14.4434L12.8369 14.5336V34.8712L13.593 34.7533L14.9525 34.5382V33.2134L14.1479 33.3382V31.7082H14.2034ZM17.1028 18.1336C18.1641 18.0365 19.3502 18.1059 20.5294 18.3001C22.0277 18.5498 23.5051 19.0007 24.719 19.5764L24.9965 19.7082L25.2739 19.5764C26.4947 19.0007 27.9722 18.5498 29.4635 18.3001C30.6427 18.1059 31.8219 18.0365 32.8901 18.1336V29.981C31.7387 29.8839 30.4901 29.9602 29.2485 30.1683C27.7502 30.418 26.2589 30.8619 24.9895 31.4238C23.7202 30.8619 22.2358 30.418 20.7306 30.1683C19.4959 29.9602 18.2404 29.8839 17.0889 29.981V18.1336H17.1028Z" fill="#333333"/>
    <path d="M39.452 11.9805L37.0035 11.592L34.5549 11.2036C34.0624 11.1273 33.563 11.0718 33.0636 11.0371C32.5572 11.0024 32.037 10.9955 31.5029 11.0024C30.9618 11.0094 30.4277 11.044 29.9006 11.0926C29.3526 11.1411 28.8185 11.2105 28.3052 11.3007C27.9029 11.37 27.5075 11.4394 27.1399 11.5226C26.7514 11.6059 26.3699 11.6961 25.9954 11.8001C25.7942 11.8556 25.5931 11.9111 25.3988 11.9735C25.274 12.0082 25.1422 12.0498 25.0035 12.0914C24.8647 12.0498 24.7329 12.0082 24.6081 11.9735C24.4139 11.918 24.2127 11.8556 24.0116 11.8001C23.637 11.6961 23.2555 11.6059 22.8671 11.5226C22.4925 11.4394 22.104 11.37 21.7017 11.3007C21.1884 11.2174 20.6543 11.1481 20.1064 11.0926C19.5792 11.044 19.0451 11.0163 18.504 11.0024C17.9699 10.9955 17.4428 11.0024 16.9434 11.0371C16.4439 11.0718 15.9445 11.1273 15.452 11.2036L13.0035 11.592L10.5549 11.9805L10 12.0706V32.5677L10.8254 32.3458C11.1514 32.2556 11.6023 32.1654 12.1156 32.0683V30.7365C11.8312 30.7851 11.5607 30.8406 11.311 30.8891V13.1805L13.2046 12.8822L15.6532 12.4937C16.0902 12.4244 16.548 12.3758 17.0197 12.3411C17.5121 12.3065 17.9977 12.2995 18.4832 12.3065C18.9896 12.3134 19.489 12.3481 19.9884 12.3897C20.4879 12.4383 20.9873 12.5007 21.4867 12.5839C21.8474 12.6463 22.215 12.7157 22.5896 12.7989C22.9572 12.8822 23.3249 12.9654 23.6717 13.0625C23.859 13.1111 24.0462 13.1666 24.2335 13.2221C24.4347 13.2845 24.622 13.34 24.7954 13.3955L24.9965 13.4648L25.1977 13.3955C25.3711 13.34 25.5584 13.2776 25.7595 13.2221C25.9468 13.1666 26.141 13.1111 26.3214 13.0625C26.6682 12.9654 27.0358 12.8822 27.4035 12.7989C27.778 12.7157 28.1457 12.6463 28.5133 12.5839C29.0127 12.5007 29.5121 12.4313 30.0116 12.3897C30.511 12.3411 31.0173 12.3134 31.5168 12.3065C32.0023 12.2995 32.4879 12.3065 32.9803 12.3411C33.452 12.3689 33.9098 12.4244 34.3468 12.4937L36.7954 12.8822L38.689 13.1805V36.7227C37.9052 36.5909 37.2116 36.466 36.5803 36.3481C32.148 35.5365 30.5318 35.2452 24.9965 37.8186L24.4902 37.5758C22.1249 36.4452 20.4532 35.6544 17.8798 35.7654C17.6301 35.7793 17.3665 35.7932 17.096 35.8209V32.0406C16.6798 32.0544 16.2012 32.0683 15.785 32.103V37.3331L16.541 37.2151C17.0197 37.1388 17.4566 37.0972 17.8798 37.0764C20.1896 36.9793 21.7364 37.7076 23.9283 38.755L24.7191 39.1296L24.9965 39.2614L25.274 39.1296C30.6566 36.5978 32.141 36.8683 36.3445 37.6313C37.1907 37.7839 38.148 37.9643 39.2439 38.1377L40 38.2556V12.0637L39.4451 11.9735L39.452 11.9805Z" fill="#333333"/>
    <path d="M24.7187 19.5689C23.4979 18.9932 22.0205 18.5423 20.5291 18.2926C19.3499 18.0984 18.1707 18.029 17.1025 18.1261V29.9735C18.254 29.8764 19.5025 29.9527 20.7442 30.1608C22.2424 30.4105 23.7338 30.8544 25.0031 31.4163V19.6937L24.7257 19.5619L24.7187 19.5689Z" fill="white"/>
    <path opacity="0.42" d="M29.4705 18.2925C27.9722 18.5422 26.4947 18.9931 25.2809 19.5688L25.0034 19.7006V31.4231C26.2728 30.8613 27.7572 30.4173 29.2624 30.1676C30.4971 29.9595 31.7525 29.8832 32.904 29.9803V18.1329C31.8427 18.0358 30.6566 18.1052 29.4774 18.2994L29.4705 18.2925Z" fill="#3AAA35"/>
</svg>