<svg width="39" height="33" viewBox="0 0 39 33" fill="none" xmlns="http://www.w3.org/2000/svg">
<path fill-rule="evenodd" clip-rule="evenodd" d="M37.1223 18.2486C37.9709 18.1317 38.625 17.3935 38.625 16.5002C38.625 15.5258 37.8466 14.7358 36.8864 14.7358L6.32514 14.7358L17.365 3.57715L17.5338 3.37961C18.0402 2.68993 17.9861 1.70958 17.3701 1.08188C16.6925 0.391398 15.5917 0.389085 14.9113 1.07671L0.911125 15.2259C0.827755 15.3069 0.752327 15.3963 0.686134 15.4927C0.212147 16.1818 0.278919 17.1376 0.886421 17.7515L14.9114 31.9234L15.1068 32.0938C15.7885 32.6048 16.7543 32.5458 17.3702 31.918C18.0477 31.2275 18.0454 30.1103 17.3649 29.4227L6.32239 18.2647L36.8864 18.2647L37.1223 18.2486Z" fill="#F4F8FB"/>
</svg>
