<svg width="33" height="33" viewBox="0 0 33 33" fill="none" xmlns="http://www.w3.org/2000/svg">
<path fill-rule="evenodd" clip-rule="evenodd" d="M11.2974 10.2133C11.0045 9.92043 10.5297 9.92043 10.2368 10.2133C9.94387 10.5062 9.94387 10.9811 10.2368 11.274L15.5401 16.5773L10.2368 21.8806C9.94387 22.1735 9.94387 22.6484 10.2368 22.9412C10.5297 23.2341 11.0045 23.2341 11.2974 22.9412L16.6007 17.6379L21.904 22.9412C22.1969 23.2341 22.6718 23.2341 22.9647 22.9412C23.2576 22.6484 23.2576 22.1735 22.9647 21.8806L17.6614 16.5773L22.9647 11.274C23.2576 10.9811 23.2576 10.5062 22.9647 10.2133C22.6718 9.92043 22.1969 9.92043 21.904 10.2133L16.6007 15.5166L11.2974 10.2133Z" fill="#00122F"/>
</svg>
