<svg width="18" height="18" viewBox="0 0 18 18" fill="none" xmlns="http://www.w3.org/2000/svg">
<path d="M6.5325 13.2675C6.3225 13.185 6.1875 12.975 6.1875 12.75V8.25C6.1875 7.9425 6.4425 7.6875 6.75 7.6875C7.0575 7.6875 7.3125 7.9425 7.3125 8.25V11.3925L7.8525 10.8525C8.07 10.635 8.43 10.635 8.6475 10.8525C8.865 11.07 8.865 11.43 8.6475 11.6475L7.1475 13.1475C7.0425 13.2525 6.8925 13.3125 6.75 13.3125C6.675 13.3125 6.6075 13.2975 6.5325 13.2675Z" fill="white"/>
<path d="M6.35209 13.1475L4.85209 11.6475C4.63459 11.43 4.63459 11.07 4.85209 10.8525C5.06959 10.635 5.42959 10.635 5.64709 10.8525L7.14709 12.3525C7.36459 12.57 7.36459 12.93 7.14709 13.1475C7.03459 13.26 6.89209 13.3125 6.74959 13.3125C6.60709 13.3125 6.46459 13.26 6.35209 13.1475Z" fill="white"/>
<path d="M6.75 17.0625C2.6775 17.0625 0.9375 15.3225 0.9375 11.25V6.75C0.9375 2.6775 2.6775 0.9375 6.75 0.9375H10.5C10.8075 0.9375 11.0625 1.1925 11.0625 1.5C11.0625 1.8075 10.8075 2.0625 10.5 2.0625H6.75C3.2925 2.0625 2.0625 3.2925 2.0625 6.75V11.25C2.0625 14.7075 3.2925 15.9375 6.75 15.9375H11.25C14.7075 15.9375 15.9375 14.7075 15.9375 11.25V7.5C15.9375 7.1925 16.1925 6.9375 16.5 6.9375C16.8075 6.9375 17.0625 7.1925 17.0625 7.5V11.25C17.0625 15.3225 15.3225 17.0625 11.25 17.0625H6.75Z" fill="white"/>
<path fill-rule="evenodd" clip-rule="evenodd" d="M13.5 8.06249C10.935 8.06249 9.9375 7.06499 9.9375 4.49999V1.49999C9.9375 1.27499 10.0725 1.06499 10.2825 0.982492C10.4925 0.892492 10.7325 0.944992 10.8975 1.10249L16.8975 7.10249C17.055 7.25999 17.1075 7.50749 17.0175 7.71749C16.9275 7.92749 16.725 8.06249 16.5 8.06249H13.5ZM11.0625 4.49999C11.0625 6.43499 11.565 6.93749 13.5 6.93749H15.1425L11.0625 2.85749V4.49999Z" fill="white"/>
</svg>
