<svg width="50" height="50" viewBox="0 0 50 50" fill="none" xmlns="http://www.w3.org/2000/svg">
    <path d="M37.946 0H12.054C5.39678 0 0 5.39678 0 12.054V37.946C0 44.6032 5.39678 50 12.054 50H37.946C44.6032 50 50 44.6032 50 37.946V12.054C50 5.39678 44.6032 0 37.946 0Z" fill="#ECECEC"/>
    <path d="M35.6236 18.1454L38.5477 15.2212C38.592 15.1769 38.6168 15.1168 38.6168 15.0542C38.6168 14.9916 38.592 14.9316 38.5477 14.8872L35.7295 12.0691C35.6851 12.0249 35.6251 12.0001 35.5625 12.0001C35.4999 12.0001 35.4398 12.0249 35.3955 12.0691L32.4713 14.9933L29.547 12.0691C29.5027 12.0249 29.4426 12 29.38 12C29.3174 12 29.2573 12.0249 29.213 12.0691L26.394 14.8876C26.3721 14.9095 26.3546 14.9355 26.3427 14.9642C26.3308 14.9928 26.3247 15.0235 26.3247 15.0546C26.3247 15.0856 26.3308 15.1163 26.3427 15.145C26.3546 15.1736 26.3721 15.1997 26.394 15.2216L29.3185 18.1454L26.3944 21.0696C26.3502 21.1139 26.3254 21.174 26.3254 21.2366C26.3254 21.2992 26.3502 21.3592 26.3944 21.4036L29.2125 24.2228C29.2569 24.267 29.3169 24.2917 29.3795 24.2917C29.4421 24.2917 29.5021 24.267 29.5465 24.2228L32.4703 21.2987L35.3945 24.2228C35.4388 24.2671 35.4989 24.2919 35.5615 24.2919C35.6241 24.2919 35.6841 24.2671 35.7285 24.2228L38.5469 21.4044C38.5911 21.36 38.6158 21.3 38.6158 21.2374C38.6158 21.1748 38.5911 21.1148 38.5469 21.0704L35.6236 18.1454ZM35.5621 23.2756L33.2584 20.9724V15.3196L35.5621 13.0158L37.6017 15.0547L35.0666 17.5891L34.5095 18.1454L35.0665 18.7023L37.6017 21.2372L35.5621 23.2756Z" fill="#EDA593"/>
    <path d="M12.0689 35.3952C12.0248 35.4396 12 35.4997 12 35.5622C12 35.6248 12.0248 35.6849 12.0689 35.7292L14.8874 38.5477C14.9317 38.5919 14.9917 38.6167 15.0544 38.6167C15.117 38.6167 15.177 38.5919 15.2214 38.5477L18.1454 35.6239L21.0692 38.548C21.1136 38.5922 21.1736 38.6169 21.2362 38.6169C21.2988 38.6169 21.3588 38.5922 21.4032 38.548L24.2226 35.7297C24.2668 35.6854 24.2916 35.6253 24.2916 35.5627C24.2916 35.5001 24.2668 35.4401 24.2226 35.3957L21.2985 32.4716L24.2226 29.5478C24.2669 29.5035 24.2917 29.4434 24.2917 29.3808C24.2917 29.3181 24.2669 29.2581 24.2226 29.2138L21.4043 26.3943C21.36 26.3501 21.3 26.3252 21.2373 26.3252C21.1747 26.3252 21.1147 26.3501 21.0703 26.3943L18.1454 29.3188L15.2212 26.3946C15.1769 26.3504 15.1168 26.3256 15.0542 26.3256C14.9916 26.3256 14.9315 26.3504 14.8872 26.3946L12.0689 29.2128C12.0248 29.2571 12 29.3172 12 29.3798C12 29.4423 12.0248 29.5024 12.0689 29.5468L14.9931 32.4706L12.0689 35.3952ZM13.0156 35.5622L15.5502 33.028L16.108 32.4711L15.5502 31.9143L13.0156 29.3799L15.0545 27.341L17.3583 29.6448V35.2974L15.0545 37.602L13.0156 35.5622Z" fill="#83C29D"/>
    <path d="M36.7562 28.1744C36.2107 27.6008 35.5535 27.1451 34.825 26.8353C34.0966 26.5255 33.3124 26.3682 32.5208 26.3732L32.4695 26.3742C30.8805 26.3811 29.3593 27.0183 28.2396 28.1459C27.6536 28.6868 27.1871 29.3444 26.8702 30.0762C26.5532 30.8081 26.3928 31.5981 26.3991 32.3957V32.6193C26.3991 32.8223 26.4086 33.0261 26.4272 33.2255C26.5567 34.6208 27.1979 35.9188 28.2274 36.8694C29.3551 37.9891 30.8801 38.617 32.4692 38.6161L32.6759 38.6174V37.6989L32.6674 37.5078C32.6016 37.5105 32.537 37.5177 32.4705 37.5177C31.3041 37.517 30.1752 37.1055 29.2819 36.3555C28.3886 35.6054 27.788 34.5647 27.5855 33.416C27.579 33.3801 27.5743 33.344 27.5688 33.3078C27.5537 33.2103 27.5377 33.1129 27.5289 33.0136C27.5145 32.8614 27.5053 32.7078 27.5053 32.5521C27.5053 32.5248 27.509 32.4982 27.5095 32.471H38.5415C38.5478 31.6716 38.3929 30.8792 38.0862 30.141C37.7795 29.4028 37.3271 28.734 36.7562 28.1744Z" fill="#EC7964"/>
    <path d="M13.8605 22.4811C14.406 23.0546 15.0632 23.5102 15.7917 23.8199C16.5201 24.1296 17.3042 24.2868 18.0957 24.2818L18.147 24.2808C19.736 24.2738 21.2573 23.6367 22.3769 22.5091C22.963 21.9682 23.4295 21.3106 23.7464 20.5788C24.0634 19.8469 24.2239 19.0569 24.2176 18.2593V18.0357C24.2176 17.8326 24.2081 17.6289 24.1895 17.4295C24.06 16.0342 23.4188 14.7362 22.3893 13.7856C21.2614 12.6657 19.7361 12.0378 18.1467 12.0389L17.9398 12.0376V12.9561L17.9483 13.1471C18.0141 13.1445 18.0787 13.1373 18.1452 13.1373C19.3117 13.1377 20.4409 13.5491 21.3344 14.2991C22.2279 15.0491 22.8287 16.0899 23.0312 17.2388C23.0377 17.2747 23.0424 17.3108 23.0479 17.347C23.063 17.4445 23.079 17.5419 23.0878 17.6413C23.1022 17.7934 23.1114 17.947 23.1114 18.1027C23.1114 18.1299 23.1077 18.1566 23.1072 18.1838H12.0744C12.0681 18.9834 12.2231 19.776 12.5299 20.5143C12.8368 21.2526 13.2893 21.9215 13.8605 22.4811Z" fill="#4C8665"/>
</svg>