<svg width="18" height="18" viewBox="0 0 18 18" fill="#fff" xmlns="http://www.w3.org/2000/svg">
<path fill-rule="evenodd" clip-rule="evenodd" d="M5.75244 8.99994C5.75244 7.20744 7.20744 5.75244 8.99994 5.75244C10.7924 5.75244 12.2474 7.20744 12.2474 8.99994C12.2474 10.7924 10.7924 12.2474 8.99994 12.2474C7.20744 12.2474 5.75244 10.7924 5.75244 8.99994ZM6.87744 8.99994C6.87744 10.1699 7.82994 11.1224 8.99994 11.1224C10.1699 11.1224 11.1224 10.1699 11.1224 8.99994C11.1224 7.82994 10.1699 6.87744 8.99994 6.87744C7.82994 6.87744 6.87744 7.82994 6.87744 8.99994Z" fill="white"/>
<path fill-rule="evenodd" clip-rule="evenodd" d="M1.68756 11.25C0.892559 10.0125 0.892559 7.99499 1.68756 6.74999C3.52506 3.88499 6.18756 2.23499 9.00006 2.23499C11.8126 2.23499 14.4751 3.88499 16.3051 6.74999C17.1001 7.98749 17.1001 10.005 16.3051 11.25C14.4751 14.115 11.8126 15.765 9.00006 15.765C6.18006 15.765 3.51756 14.115 1.68756 11.25ZM2.64006 7.35749C2.07756 8.23499 2.07756 9.76498 2.64006 10.6425C4.26006 13.185 6.57756 14.64 9.00006 14.64C11.4226 14.64 13.7401 13.185 15.3601 10.6425C15.9226 9.76498 15.9226 8.23499 15.3601 7.35749C13.7401 4.81499 11.4226 3.35999 9.00006 3.35999C6.57756 3.35999 4.26006 4.81499 2.64006 7.35749Z" fill="white"/>
</svg>
