<svg width="18" height="18" viewBox="0 0 18 18" fill="none" xmlns="http://www.w3.org/2000/svg">
<path d="M8.78462 14.9002L8.78463 14.9002L8.7773 14.8977C7.79745 14.5632 6.14058 13.6654 4.73861 12.2289C3.34568 10.8017 2.25 8.89297 2.25 6.51745C2.25 4.61066 3.78521 3.07495 5.67 3.07495C6.78647 3.07495 7.77505 3.61345 8.39788 4.45211C8.53937 4.64263 8.76269 4.75495 9 4.75495C9.23731 4.75495 9.46063 4.64263 9.60212 4.45211C10.2245 3.61406 11.2203 3.07495 12.33 3.07495C14.2148 3.07495 15.75 4.61066 15.75 6.51745C15.75 8.89297 14.6543 10.8017 13.2614 12.2289C11.8594 13.6654 10.2026 14.5632 9.2227 14.8977L9.22268 14.8976L9.21538 14.9002C9.19312 14.9081 9.11513 14.925 9 14.925C8.88487 14.925 8.80688 14.9081 8.78462 14.9002Z" stroke="#fff" stroke-width="1.5" stroke-linecap="round" stroke-linejoin="round"/>
</svg>
