<svg width="66" height="66" viewBox="0 0 115 115" fill="none" xmlns="http://www.w3.org/2000/svg">
<g clip-path="url(#clip0_1858_2132)">
<path d="M115 115H0V0H115V115ZM4.66279 110.337H110.337V4.66279H4.66279V110.337Z" fill="white"/>
<path d="M71.9548 89.3615H42.0508V25.6367H61.5024V69.9099H71.9548C77.317 69.9099 81.6767 74.2696 81.6767 79.6319C81.6767 84.9941 77.317 89.3538 71.9548 89.3538V89.3615ZM46.7136 84.6988H71.9548C74.7447 84.6988 77.014 82.4295 77.014 79.6396C77.014 76.8497 74.7447 74.5805 71.9548 74.5805H56.8396V30.3073H46.7136V84.6988Z" fill="white"/>
<path d="M51.4776 68.1392C41.2194 68.1392 32.873 59.7928 32.873 49.5346C32.873 48.2446 33.9144 47.2032 35.2044 47.2032C36.4945 47.2032 37.5358 48.2446 37.5358 49.5346C37.5358 57.2205 43.7918 63.4764 51.4776 63.4764C59.1634 63.4764 65.4193 57.2205 65.4193 49.5346C65.4193 44.6465 62.8082 40.0458 58.5961 37.5435C57.4926 36.8829 57.1273 35.453 57.7879 34.3495C58.4485 33.2459 59.8784 32.8807 60.9819 33.5412C66.6006 36.8829 70.0821 43.0145 70.0821 49.5424C70.0821 59.8005 61.7357 68.1469 51.4776 68.1469V68.1392Z" fill="#26E71E"/>
<path d="M61.5026 27.9688H56.8398V51.9899H61.5026V27.9688Z" fill="white"/>
<path d="M46.7136 48.8203H42.0508V72.2353H46.7136V48.8203Z" fill="white"/>
</g>
<defs>
<clipPath id="clip0_1858_2132">
<rect width="115" height="115" fill="white"/>
</clipPath>
</defs>
</svg>
