<svg width="50" height="50" viewBox="0 0 50 50" fill="none" xmlns="http://www.w3.org/2000/svg">
    <path d="M37.946 0H12.054C5.39678 0 0 5.39678 0 12.054V37.946C0 44.6032 5.39678 50 12.054 50H37.946C44.6032 50 50 44.6032 50 37.946V12.054C50 5.39678 44.6032 0 37.946 0Z" fill="#ECECEC"/>
    <path fillRule="evenodd" clipRule="evenodd" d="M26.3666 29.6102V37.0764H24.2283V29.6102H26.3666ZM22.2792 27.6199V37.0764H13.0151V27.6199H22.2792ZM20.3338 29.6057H14.9606V35.0905H20.3338V29.6057ZM26.3666 23.4468V27.6199H24.2283V23.4468H26.3666ZM31.9538 23.4468V25.6296H28.3175V23.4468H31.9538ZM37.5816 23.4468V25.6296H33.9035V23.4468H37.5816ZM22.2793 23.4468V25.6296H13.0151V23.4468H22.2793ZM37.5816 12V21.4566H28.3175V12H37.5816ZM22.2793 12V21.4566H13.0151V12H22.2793ZM26.3666 17.3373V21.4566H24.2283V17.3373H26.3666ZM35.636 13.986H30.2629V19.4707H35.636V13.986ZM20.3338 13.986H14.9606V19.4707H20.3338V13.986ZM26.3666 12V15.347H24.2283V12H26.3666Z" fill="#C6C6C6"/>
    <path fillRule="evenodd" clipRule="evenodd" d="M37.8271 27.5479V37.0044H28.563V27.5479H37.8271ZM35.8816 29.5339H30.5084V35.0186H35.8816V29.5339Z" fill="#C6C6C6"/>
    <path fillRule="evenodd" clipRule="evenodd" d="M42.6812 23.7787C41.3278 25.1891 38.6584 27.6816 35.0726 29.6336C34.9388 29.7065 34.9419 29.9035 35.0775 29.9728C36.9025 30.9044 37.9894 32.4132 38.0372 34.5567C38.0706 36.0564 37.1697 37.0473 35.8314 37.0759C34.6202 37.1019 33.9337 36.2707 33.9154 34.6969C33.9011 33.4739 33.4762 32.4156 32.7925 31.4378C32.6159 31.1851 32.4398 31.0395 32.2177 30.9979C32.1858 30.9919 32.1529 30.9966 32.1226 31.0084C25.6481 33.5219 17.0756 33.562 8.05833 24.4089C7.90101 24.2493 8.09091 23.9904 8.28451 24.1008C12.5106 26.5124 26.8787 33.2115 42.446 23.4775C42.6367 23.3583 42.8377 23.6156 42.6812 23.7787ZM33.1393 30.0256L33.1189 30.0255C33.0813 30.026 33.0433 30.0281 33.0051 30.0308C32.9957 30.0315 32.9863 30.0317 32.9769 30.0325C32.9408 30.0356 32.9041 30.0403 32.8673 30.0453C32.8558 30.047 32.8444 30.048 32.8327 30.0498C32.7964 30.0553 32.7594 30.0626 32.7223 30.0701C32.7104 30.0726 32.6986 30.0743 32.6866 30.077C32.6377 30.0876 32.5885 30.0999 32.5385 30.114C32.5912 30.13 32.6425 30.1469 32.6926 30.1647L32.7157 30.1733C32.7588 30.1889 32.8013 30.205 32.8427 30.2219C32.8466 30.2235 32.8503 30.2252 32.8542 30.2267C32.8995 30.2454 32.9437 30.2649 32.987 30.285C32.9872 30.2851 32.9876 30.2852 32.9878 30.2854C33.8199 30.6731 34.2866 31.3271 34.7125 31.995L34.871 32.2457C35.0288 32.496 35.1866 32.7438 35.3614 32.9758C35.1904 31.4242 34.5778 30.3738 33.6544 30.0978C33.613 30.0854 33.5712 30.0747 33.5286 30.0654C33.5279 30.0653 33.5272 30.0652 33.5265 30.065C33.4852 30.0561 33.4434 30.0488 33.4009 30.0427C33.3987 30.0425 33.3964 30.0421 33.3941 30.0417C33.3537 30.0362 33.3127 30.0323 33.2713 30.0296C33.2668 30.0292 33.2624 30.0289 33.258 30.0286C33.219 30.0262 33.1793 30.0255 33.1393 30.0256ZM34.5299 15.187V18.2698H31.5098V15.187H34.5299ZM19.2276 15.187V18.2698H16.2075V15.187H19.2276Z" fill="#3AAA35"/>
</svg>