<svg width="80" height="80" viewBox="0 0 80 80" fill="none" xmlns="http://www.w3.org/2000/svg">
<path d="M10.0787 29.9213C10.0787 29.0535 10.7858 28.3465 11.6535 28.3465C12.5213 28.3465 13.2283 29.0535 13.2283 29.9213C13.2283 30.7906 12.5213 31.4961 11.6535 31.4961C10.7858 31.4961 10.0787 30.7906 10.0787 29.9213ZM0 29.9213C0 29.0515 0.705039 28.3465 1.5748 28.3465H4.56693C5.47244 28.3465 6.20047 29.114 6.13795 30.0309C6.0811 30.8661 5.3485 31.4961 4.51118 31.4961H3.14961V45.3389C3.83244 45.6087 4.44189 46.0529 4.91559 46.6449L16.4291 61.037L21.138 56.6353C23.8115 54.1362 27.9997 54.1361 30.6732 56.6354L50.3937 75.0699V31.4961H18.7433C18.7417 31.4961 18.7417 31.4961 18.7402 31.4961C17.8376 31.4961 17.1088 30.7326 17.1688 29.8156C17.2236 28.9786 17.9567 28.3465 18.7954 28.3465H20.1575V4.72441C20.1575 2.11512 22.2726 0 24.8819 0H75.2756C77.8849 0 80 2.11512 80 4.72441V51.9685C80 52.8383 79.295 53.5433 78.4252 53.5433H53.5433V78.4252C53.5433 79.295 52.8383 80 51.9685 80H1.5748C0.705039 80 0 79.295 0 78.4252V29.9213ZM23.3071 12.5984H76.8504V4.72441C76.8504 3.85606 76.1439 3.14961 75.2756 3.14961H24.8819C24.0135 3.14961 23.3071 3.85606 23.3071 4.72441V12.5984ZM3.14961 76.8504H47.686L28.5222 58.9362C27.0551 57.5644 24.7559 57.5644 23.2888 58.9362L18.4025 63.5038L21.2942 67.1183C22.5984 68.7485 20.1391 70.7161 18.8348 69.0858L3.14961 49.4794V76.8504ZM53.5433 29.9213V50.3937H70.5512V44.8819C70.5512 43.9775 71.3137 43.251 72.2309 43.3106C73.0679 43.3649 73.7008 44.0972 73.7008 44.9359V50.3937H76.8504V15.748H23.3071V28.3465H51.9685C52.8383 28.3465 53.5433 29.0515 53.5433 29.9213ZM29.6063 7.87402C29.6063 8.74378 28.9013 9.44882 28.0315 9.44882C27.1617 9.44882 26.4567 8.74378 26.4567 7.87402C26.4567 7.00425 27.1617 6.29921 28.0315 6.29921C28.9013 6.29921 29.6063 7.00425 29.6063 7.87402ZM36.6929 7.87402C36.6929 8.74378 35.9879 9.44882 35.1181 9.44882C34.2483 9.44882 33.5433 8.74378 33.5433 7.87402C33.5433 7.00425 34.2483 6.29921 35.1181 6.29921C35.9879 6.29921 36.6929 7.00425 36.6929 7.87402ZM43.7795 7.87402C43.7795 8.74378 43.0745 9.44882 42.2047 9.44882C41.335 9.44882 40.6299 8.74378 40.6299 7.87402C40.6299 7.00425 41.335 6.29921 42.2047 6.29921C43.0745 6.29921 43.7795 7.00425 43.7795 7.87402ZM30.2362 45.0394C30.2362 40.3504 34.0512 36.5354 38.7402 36.5354C43.4291 36.5354 47.2441 40.3504 47.2441 45.0394C47.2441 49.7283 43.4291 53.5433 38.7402 53.5433C34.0512 53.5433 30.2362 49.7283 30.2362 45.0394ZM33.3858 45.0394C33.3858 47.9918 35.7877 50.3937 38.7402 50.3937C41.6926 50.3937 44.0945 47.9918 44.0945 45.0394C44.0945 42.0869 41.6926 39.685 38.7402 39.685C35.7877 39.685 33.3858 42.0869 33.3858 45.0394ZM46.9291 18.8976H39.8425C38.9729 18.8976 38.2677 19.6028 38.2677 20.4724C38.2677 21.342 38.9729 22.0472 39.8425 22.0472H46.9291C47.7987 22.0472 48.5039 21.342 48.5039 20.4724C48.5039 19.6028 47.7987 18.8976 46.9291 18.8976ZM72.126 18.8976H68.189C67.3194 18.8976 66.6142 19.6028 66.6142 20.4724C66.6142 21.342 67.3194 22.0472 68.189 22.0472H70.5512V23.622C70.5512 24.4917 71.2564 25.1969 72.126 25.1969C72.9956 25.1969 73.7008 24.4917 73.7008 23.622V20.4724C73.7008 19.6028 72.9956 18.8976 72.126 18.8976ZM72.126 29.1339C71.2564 29.1339 70.5512 29.8391 70.5512 30.7087V37.7953C70.5512 38.6649 71.2564 39.3701 72.126 39.3701C72.9956 39.3701 73.7008 38.6649 73.7008 37.7953V30.7087C73.7008 29.8391 72.9956 29.1339 72.126 29.1339ZM32.7559 18.8976H28.0315C27.1619 18.8976 26.4567 19.6028 26.4567 20.4724V22.8346C26.4567 23.7043 27.1619 24.4094 28.0315 24.4094C28.9011 24.4094 29.6063 23.7043 29.6063 22.8346V22.0472H32.7559C33.6255 22.0472 34.3307 21.342 34.3307 20.4724C34.3307 19.6028 33.6255 18.8976 32.7559 18.8976ZM61.1024 18.8976H54.0157C53.1461 18.8976 52.4409 19.6028 52.4409 20.4724C52.4409 21.342 53.1461 22.0472 54.0157 22.0472H61.1024C61.972 22.0472 62.6772 21.342 62.6772 20.4724C62.6772 19.6028 61.972 18.8976 61.1024 18.8976Z" fill="#192B49"/>
</svg>
