<svg width="50" height="50" viewBox="0 0 50 50" fill="none" xmlns="http://www.w3.org/2000/svg">
    <path d="M37.946 0H12.054C5.39678 0 0 5.39678 0 12.054V37.946C0 44.6032 5.39678 50 12.054 50H37.946C44.6032 50 50 44.6032 50 37.946V12.054C50 5.39678 44.6032 0 37.946 0Z" fill="#ECECEC"/>
    <path d="M38.6162 21.0946V20.4865C38.1046 18.419 37.0807 16.1081 36.0568 14.1622C35.5451 13.3109 34.5212 12.4595 32.9857 11.8514C31.4501 11.2433 29.9145 11 27.3556 11C24.7962 11 22.7489 11.2433 21.2134 11.7297C20.1895 12.0946 19.1656 12.4595 18.6539 12.8243C14.5589 15.0135 13.5356 17.3244 13.0233 20.1216C13.0233 20.9731 12.5117 21.8244 12.5117 22.4325C12 24.0136 12 25.2297 12 27.4189C12.5117 29.973 13.5356 32.0406 14.0472 33.2568L14.5589 33.7433C15.0711 35.0811 16.6067 36.0541 18.6539 37.0271C20.7012 37.6351 23.2606 38 25.8201 38H26.3317C28.8912 38 31.4501 37.5136 32.9857 36.9054C34.0096 36.5405 34.5212 36.1757 35.0334 35.8108C35.0334 35.4459 35.5451 35.0811 36.0568 34.7162C37.0807 33.6216 37.5924 32.4055 37.5924 31.1893C38.6162 27.7838 38.6162 26.446 38.6162 25.473C39.1279 23.5271 39.1279 22.919 38.6162 21.0946Z" fill="#3AAA35"/>
    <path d="M28.9005 22.248V22.0903C28.7679 21.5543 28.5024 20.9552 28.2369 20.4507C28.1043 20.23 27.8388 20.0092 27.4407 19.8516C27.0426 19.6939 26.6445 19.6309 25.9811 19.6309C25.3175 19.6309 24.7868 19.6939 24.3887 19.82C24.1232 19.9146 23.8577 20.0092 23.7251 20.1038C22.6634 20.6714 22.3981 21.2705 22.2653 21.9957C22.2653 22.2165 22.1327 22.4372 22.1327 22.5948C22 23.0047 22 23.32 22 23.8876C22.1327 24.5498 22.3981 25.0858 22.5308 25.4011L22.6634 25.5273C22.7962 25.8741 23.1943 26.1264 23.7251 26.3786C24.2559 26.5363 24.9194 26.6309 25.583 26.6309H25.7156C26.3792 26.6309 27.0426 26.5047 27.4407 26.3471C27.7062 26.2525 27.8388 26.1579 27.9716 26.0633C27.9716 25.9687 28.1043 25.8741 28.2369 25.7795C28.5024 25.4957 28.6351 25.1804 28.6351 24.8651C28.9005 23.9822 28.9005 23.6354 28.9005 23.3831C29.0332 22.8786 29.0332 22.721 28.9005 22.248Z" fill="#ECECEC"/>
    <path d="M27.2657 40.4319L27.5811 40.4319C28.6531 40.1666 29.8514 39.6357 30.8603 39.1048C31.3018 38.8394 31.7432 38.3085 32.0585 37.5123C32.3739 36.7161 32.5 35.9199 32.5 34.593C32.5 33.2659 32.3739 32.2044 32.1216 31.4082C31.9324 30.8773 31.7432 30.3464 31.5541 30.081C30.4189 27.9577 29.2207 27.4271 27.7703 27.1615C27.3288 27.1615 26.8874 26.8962 26.572 26.8962C25.7522 26.6309 25.1216 26.6309 23.9865 26.6309C22.6622 26.8962 21.5901 27.4271 20.9595 27.6924L20.7072 27.9577C20.0135 28.2233 19.509 29.0195 19.0045 30.081C18.6892 31.1426 18.5 32.4697 18.5 33.7968L18.5 34.0621C18.5 35.3893 18.7522 36.7161 19.0676 37.5123C19.2568 38.0432 19.4459 38.3085 19.6351 38.5741C19.8243 38.5741 20.0135 38.8394 20.2027 39.1048C20.7703 39.6357 21.4009 39.901 22.0315 39.901C23.7973 40.4319 24.4909 40.4319 24.9955 40.4319C26.0045 40.6972 26.3198 40.6972 27.2657 40.4319Z" fill="#ECECEC"/>
</svg>